<svg width="49" height="48" viewBox="0 0 49 48" fill="none" xmlns="http://www.w3.org/2000/svg">
<circle cx="24.25" cy="24" r="24" fill="#061F37"/>
<path d="M24.25 0C10.9919 0 0.25 10.7419 0.25 24C0.25 37.2581 10.9919 48 24.25 48C37.5081 48 48.25 37.2581 48.25 24C48.25 10.7419 37.5081 0 24.25 0ZM38.1855 26.7097C38.1855 27.3484 37.6629 27.871 37.0242 27.871H28.121V36.7742C28.121 37.4129 27.5984 37.9355 26.9597 37.9355H21.5403C20.9016 37.9355 20.379 37.4129 20.379 36.7742V27.871H11.4758C10.8371 27.871 10.3145 27.3484 10.3145 26.7097V21.2903C10.3145 20.6516 10.8371 20.129 11.4758 20.129H20.379V11.2258C20.379 10.5871 20.9016 10.0645 21.5403 10.0645H26.9597C27.5984 10.0645 28.121 10.5871 28.121 11.2258V20.129H37.0242C37.6629 20.129 38.1855 20.6516 38.1855 21.2903V26.7097Z" fill="white dark:#061F37"/>
</svg>
