<svg width="35" height="54" viewBox="0 0 35 54" fill="none" xmlns="http://www.w3.org/2000/svg">
<path d="M10.0256 2.00749V52.0656L6.59278 53.2532C3.51971 52.8935 0.981043 50.7843 0 47.9487V6.374C0.981043 3.36546 3.51971 1.128 6.59278 0.746765L10.0256 2.00749Z" fill="url(#paint0_linear_202_4262)"/>
<path d="M35.0001 10.5796V18.1637L34.9958 18.1646L12.2227 26.0473L17.1881 16.7412L35.0001 10.5796Z" fill="url(#paint1_linear_202_4262)"/>
<path d="M35.0001 10.5796V18.1637L34.9958 18.1646L0.000716473 6.05213C0.981759 3.21657 3.52042 1.10733 6.5935 0.747616L34.9964 10.5778L35.0001 10.5796Z" fill="url(#paint2_linear_202_4262)"/>
<path d="M35.0001 43.4213V35.8371L34.9958 35.8362L12.2227 27.9535L17.1881 37.2596L35.0001 43.4213Z" fill="url(#paint3_linear_202_4262)"/>
<path d="M35.0001 35.8371V43.4213L34.9957 43.4221L10.0256 52.0656L6.59278 53.2532C3.51971 52.8935 0.981043 50.7843 0 47.9487L34.9948 35.8354L35.0001 35.8371Z" fill="url(#paint4_linear_202_4262)"/>
<defs>
<linearGradient id="paint0_linear_202_4262" x1="34.6282" y1="9.59576" x2="31.7575" y2="49.6831" gradientUnits="userSpaceOnUse">
<stop stop-color="#004E7C"/>
<stop offset="1" stop-color="#117DC0"/>
</linearGradient>
<linearGradient id="paint1_linear_202_4262" x1="0.490157" y1="54.681" x2="47.0767" y2="40.6524" gradientUnits="userSpaceOnUse">
<stop offset="0.00279321" stop-color="#FDEA14"/>
<stop offset="0.2849" stop-color="#FDCB4D"/>
<stop offset="0.5368" stop-color="#F7AC05"/>
<stop offset="1" stop-color="#149BD7"/>
</linearGradient>
<linearGradient id="paint2_linear_202_4262" x1="11.2995" y1="14.2157" x2="39.0677" y2="18.8213" gradientUnits="userSpaceOnUse">
<stop stop-color="#004E7C"/>
<stop offset="1" stop-color="#117DC0"/>
</linearGradient>
<linearGradient id="paint3_linear_202_4262" x1="0.914857" y1="-0.71444" x2="46.9537" y2="13.4533" gradientUnits="userSpaceOnUse">
<stop offset="0.00279321" stop-color="#FDEA14"/>
<stop offset="0.2849" stop-color="#FDCB4D"/>
<stop offset="0.5368" stop-color="#F7AC05"/>
<stop offset="1" stop-color="#149BD7"/>
</linearGradient>
<linearGradient id="paint4_linear_202_4262" x1="7.86457" y1="48.1759" x2="36.5927" y2="40.1085" gradientUnits="userSpaceOnUse">
<stop stop-color="#004E7C"/>
<stop offset="1" stop-color="#117DC0"/>
</linearGradient>
</defs>
</svg>
