<svg width="49" height="48" viewBox="0 0 49 48" fill="none" xmlns="http://www.w3.org/2000/svg">
<rect x="0.5" width="48" height="48" rx="24" fill="white dark:#061F37"/>
<path d="M40.9381 15.7565C40.5427 14.2878 39.3846 13.1298 37.9159 12.7344C35.2327 12 24.4998 12 24.4998 12C24.4998 12 13.767 12 11.0837 12.7061C9.64327 13.1015 8.457 14.2878 8.06158 15.7565C7.35547 18.4397 7.35547 24.0039 7.35547 24.0039C7.35547 24.0039 7.35547 29.5963 8.06158 32.2513C8.457 33.72 9.61502 34.878 11.0837 35.2734C13.7952 36.0078 24.4998 36.0078 24.4998 36.0078C24.4998 36.0078 35.2327 36.0078 37.9159 35.3017C39.3846 34.9062 40.5427 33.7482 40.9381 32.2795C41.6442 29.5963 41.6442 24.0321 41.6442 24.0321C41.6442 24.0321 41.6724 18.4397 40.9381 15.7565Z" fill="#061F37 dark:#white"/>
<path d="M21.082 29.1443L30.0073 24.0038L21.082 18.8633V29.1443Z" fill="white dark:#061F37"/>
</svg>
