<svg width="49" height="48" viewBox="0 0 49 48" fill="none" xmlns="http://www.w3.org/2000/svg">
<rect x="0.5" width="48" height="48" rx="24" fill="white"/>
<path d="M24.504 12.1958C28.3517 12.1958 28.8034 12.2129 30.3242 12.2815C31.7306 12.3444 32.4911 12.5788 32.9999 12.7789C33.6745 13.0419 34.1548 13.3507 34.6579 13.8538C35.161 14.3569 35.4755 14.8372 35.7328 15.5118C35.9272 16.0206 36.1673 16.781 36.2302 18.1875C36.2988 19.7083 36.3159 20.16 36.3159 24.0077C36.3159 27.8555 36.2988 28.3071 36.2302 29.8279C36.1673 31.2344 35.9329 31.9948 35.7328 32.5036C35.4698 33.1783 35.161 33.6585 34.6579 34.1617C34.1548 34.6648 33.6745 34.9792 32.9999 35.2365C32.4911 35.4309 31.7306 35.671 30.3242 35.7339C28.8034 35.8025 28.3517 35.8197 24.504 35.8197C20.6562 35.8197 20.2045 35.8025 18.6837 35.7339C17.2773 35.671 16.5169 35.4366 16.008 35.2365C15.3334 34.9735 14.8531 34.6648 14.35 34.1617C13.8469 33.6585 13.5324 33.1783 13.2752 32.5036C13.0808 31.9948 12.8406 31.2344 12.7778 29.8279C12.7091 28.3071 12.692 27.8555 12.692 24.0077C12.692 20.16 12.7091 19.7083 12.7778 18.1875C12.8406 16.781 13.0751 16.0206 13.2752 15.5118C13.5382 14.8372 13.8469 14.3569 14.35 13.8538C14.8531 13.3507 15.3334 13.0362 16.008 12.7789C16.5169 12.5845 17.2773 12.3444 18.6837 12.2815C20.2045 12.2072 20.6619 12.1958 24.504 12.1958ZM24.504 9.6001C20.5933 9.6001 20.1016 9.61725 18.5637 9.68586C17.0314 9.75447 15.9852 10.0003 15.0704 10.3548C14.1213 10.7207 13.3209 11.2181 12.5205 12.0185C11.7201 12.8189 11.2284 13.6251 10.8567 14.5684C10.5023 15.4832 10.2564 16.5295 10.1878 18.0674C10.1192 19.5997 10.1021 20.0914 10.1021 24.002C10.1021 27.9126 10.1192 28.4043 10.1878 29.9423C10.2564 31.4745 10.5023 32.5208 10.8567 33.4413C11.2226 34.3904 11.7201 35.1908 12.5205 35.9912C13.3209 36.7916 14.127 37.2833 15.0704 37.6549C15.9852 38.0094 17.0314 38.2553 18.5694 38.3239C20.1074 38.3925 20.5933 38.4096 24.5097 38.4096C28.426 38.4096 28.912 38.3925 30.45 38.3239C31.9822 38.2553 33.0285 38.0094 33.949 37.6549C34.898 37.289 35.6985 36.7916 36.4989 35.9912C37.2993 35.1908 37.791 34.3846 38.1626 33.4413C38.5171 32.5265 38.7629 31.4802 38.8316 29.9423C38.9002 28.4043 38.9173 27.9184 38.9173 24.002C38.9173 20.0856 38.9002 19.5997 38.8316 18.0617C38.7629 16.5295 38.5171 15.4832 38.1626 14.5627C37.7967 13.6136 37.2993 12.8132 36.4989 12.0128C35.6985 11.2124 34.8923 10.7207 33.949 10.3491C33.0342 9.99459 31.9879 9.74875 30.45 9.68014C28.9063 9.61725 28.4146 9.6001 24.504 9.6001Z" fill="#061F37"/>
<path d="M24.5037 16.6094C20.4215 16.6094 17.1055 19.9197 17.1055 24.0076C17.1055 28.0954 20.4158 31.4058 24.5037 31.4058C28.5915 31.4058 31.9019 28.0954 31.9019 24.0076C31.9019 19.9197 28.5915 16.6094 24.5037 16.6094ZM24.5037 28.8044C21.8508 28.8044 19.7011 26.6547 19.7011 24.0019C19.7011 21.349 21.8508 19.1993 24.5037 19.1993C27.1565 19.1993 29.3062 21.349 29.3062 24.0019C29.3062 26.6547 27.1565 28.8044 24.5037 28.8044Z" fill="#061F37 "/>
<path d="M32.1934 18.0387C33.147 18.0387 33.9201 17.2657 33.9201 16.3121C33.9201 15.3585 33.147 14.5854 32.1934 14.5854C31.2398 14.5854 30.4668 15.3585 30.4668 16.3121C30.4668 17.2657 31.2398 18.0387 32.1934 18.0387Z" fill="#061F37"/>
</svg>
