<svg width="25" height="26" viewBox="0 0 25 26" fill="none" xmlns="http://www.w3.org/2000/svg">
<path d="M16.682 8.35388C15.9803 4.03204 14.3251 0.997559 12.3989 0.997559C10.4727 0.997559 8.81754 4.03204 8.11578 8.35388H16.682ZM7.75281 13C7.75281 14.0744 7.81088 15.1052 7.91252 16.0974H16.8805C16.9821 15.1052 17.0402 14.0744 17.0402 13C17.0402 11.9256 16.9821 10.8947 16.8805 9.90258H7.91252C7.81088 10.8947 7.75281 11.9256 7.75281 13ZM23.4673 8.35388C22.0831 5.06773 19.2809 2.5269 15.8206 1.50089C17.0014 3.1367 17.8145 5.6001 18.2404 8.35388H23.4673ZM8.97241 1.50089C5.51687 2.5269 2.70985 5.06773 1.33054 8.35388H6.5574C6.97846 5.6001 7.79152 3.1367 8.97241 1.50089ZM23.9851 9.90258H18.434C18.5356 10.9189 18.5937 11.9594 18.5937 13C18.5937 14.0405 18.5356 15.081 18.434 16.0974H23.9803C24.2465 15.1052 24.3965 14.0744 24.3965 13C24.3965 11.9256 24.2465 10.8947 23.9851 9.90258ZM6.20411 13C6.20411 11.9594 6.26218 10.9189 6.36382 9.90258H0.812697C0.551354 10.8947 0.396484 11.9256 0.396484 13C0.396484 14.0744 0.551354 15.1052 0.812697 16.0974H6.35898C6.26218 15.081 6.20411 14.0405 6.20411 13ZM8.11578 17.6461C8.81754 21.9679 10.4727 25.0024 12.3989 25.0024C14.3251 25.0024 15.9803 21.9679 16.682 17.6461H8.11578ZM15.8254 24.4991C19.2809 23.4731 22.088 20.9322 23.4721 17.6461H18.2452C17.8194 20.3999 17.0063 22.8633 15.8254 24.4991ZM1.33054 17.6461C2.71469 20.9322 5.51687 23.4731 8.97725 24.4991C7.79636 22.8633 6.9833 20.3999 6.5574 17.6461H1.33054Z" fill="white"/>
</svg>
