<svg width="20" height="16" viewBox="0 0 20 16" fill="none" xmlns="http://www.w3.org/2000/svg">
<path d="M10.0008 15.6077C7.2741 15.6077 4.54739 15.6089 1.82006 15.607C0.937404 15.6064 0.270833 15.1224 0.0657339 14.3282C0.0205633 14.1537 0.00286131 13.9675 0.00286131 13.7868C-0.000190754 9.79652 -0.000801167 5.80564 0.00103007 1.81537C0.00164049 0.72273 0.728032 0.00305309 1.82556 0.00122185C3.1587 -0.0012198 4.49123 0.00122185 5.82437 1.02642e-06C6.51048 -0.000609387 7.04215 0.271024 7.41328 0.859463C7.45601 0.927829 7.58297 0.977273 7.67087 0.977883C9.00401 0.985208 10.3372 0.994364 11.6697 0.979104C12.4999 0.969337 13.081 1.31849 13.4344 2.06686C13.623 2.46546 13.8336 2.85368 14.021 3.25289C14.0827 3.38474 14.1602 3.42076 14.3 3.42015C15.5873 3.41465 16.8747 3.41648 18.1614 3.41709C19.2761 3.4177 19.9969 4.13006 19.9982 5.23979C20.0006 8.08798 20.0006 10.9362 19.9982 13.7844C19.9969 14.8904 19.273 15.607 18.1584 15.6077C15.439 15.6095 12.7196 15.6077 10.0008 15.6077ZM9.26832 10.2379C9.26832 10.8196 9.26466 11.3732 9.26954 11.9275C9.27321 12.3529 9.5949 12.6795 9.99716 12.6807C10.4013 12.6819 10.7242 12.3584 10.729 11.9324C10.7351 11.4452 10.7303 10.9575 10.7315 10.4704C10.7315 10.3978 10.7394 10.3251 10.7443 10.2379C11.3132 10.2379 11.8607 10.2421 12.4077 10.2366C12.8496 10.2317 13.1585 9.93326 13.1628 9.52062C13.167 9.10859 12.8637 8.793 12.4278 8.77896C12.0628 8.76737 11.6965 8.77591 11.3315 8.77591C11.1368 8.77591 10.9415 8.77591 10.7297 8.77591C10.7297 8.18259 10.737 7.6204 10.7272 7.05821C10.7205 6.64984 10.3872 6.33731 9.98861 6.34281C9.59795 6.34769 9.28114 6.65473 9.27015 7.05455C9.26039 7.40431 9.26771 7.75469 9.26771 8.10507C9.26771 8.32299 9.26771 8.54151 9.26771 8.7753C9.1554 8.7753 9.07299 8.7753 8.98997 8.7753C8.51752 8.7753 8.04567 8.76676 7.57321 8.77835C7.13371 8.78934 6.83278 9.10126 6.83461 9.51512C6.83705 9.92837 7.14531 10.2256 7.58541 10.2366C7.73741 10.2403 7.89001 10.2379 8.04261 10.2379C8.44427 10.2379 8.84531 10.2379 9.26771 10.2379H9.26832ZM12.4718 3.41648C12.3411 3.15462 12.2191 2.93548 12.1214 2.70657C12.0378 2.51063 11.912 2.44043 11.6984 2.44165C10.5789 2.4502 9.45938 2.44532 8.33989 2.44593C8.27274 2.44593 8.20559 2.45142 8.09999 2.4563C8.23062 2.75419 8.34233 3.03437 8.47967 3.30173C8.51141 3.36338 8.63044 3.41099 8.7098 3.4116C9.95016 3.41832 11.1911 3.41648 12.4712 3.41648H12.4718Z" fill="white"/>
</svg>
