<svg width="49" height="48" viewBox="0 0 49 48" fill="none" xmlns="http://www.w3.org/2000/svg">
<rect x="0.25" width="48" height="48" rx="24" fill="white dark:#061F37"/>
<path d="M19.8582 36.6602C30.5022 36.6602 36.3222 27.8402 36.3222 20.1962C36.3222 19.9442 36.3222 19.6922 36.3102 19.4522C37.4382 18.6362 38.4222 17.6162 39.2022 16.4522C38.1702 16.9082 37.0542 17.2202 35.8782 17.3642C37.0782 16.6442 37.9902 15.5162 38.4222 14.1602C37.3062 14.8202 36.0702 15.3002 34.7502 15.5642C33.6942 14.4362 32.1942 13.7402 30.5262 13.7402C27.3342 13.7402 24.7422 16.3322 24.7422 19.5242C24.7422 19.9802 24.7902 20.4242 24.8982 20.8442C20.0862 20.6042 15.8262 18.3002 12.9702 14.7962C12.4782 15.6482 12.1902 16.6442 12.1902 17.7002C12.1902 19.7042 13.2102 21.4802 14.7702 22.5122C13.8222 22.4882 12.9342 22.2242 12.1542 21.7922C12.1542 21.8162 12.1542 21.8402 12.1542 21.8642C12.1542 24.6722 14.1462 27.0002 16.7982 27.5402C16.3182 27.6722 15.8022 27.7442 15.2742 27.7442C14.9022 27.7442 14.5422 27.7082 14.1822 27.6362C14.9142 29.9402 17.0502 31.6082 19.5822 31.6562C17.6022 33.2042 15.1062 34.1282 12.3942 34.1282C11.9262 34.1282 11.4702 34.1042 11.0142 34.0442C13.5462 35.7002 16.5942 36.6602 19.8582 36.6602Z" fill="#061F37"/>
</svg>
