<svg width="24" height="12" viewBox="0 0 24 12" fill="none" xmlns="http://www.w3.org/2000/svg">
<path d="M6.46714 11.8063L7.07717 11.1962C7.34096 10.9352 7.33547 10.5093 7.06618 10.2537L3.75498 7.09915H23.3405C23.706 7.09915 24 6.80513 24 6.43966V5.56034C24 5.19487 23.706 4.90085 23.3405 4.90085H3.75498L7.06618 1.74628C7.33272 1.49073 7.33822 1.0648 7.07717 0.803755L6.46714 0.193726C6.21159 -0.0645752 5.79391 -0.0645752 5.53561 0.193726L0.193726 5.53561C-0.0645752 5.79116 -0.0645752 6.20884 0.193726 6.46714L5.53561 11.8063C5.79116 12.0646 6.20884 12.0646 6.46714 11.8063Z" fill="#061F37"/>
</svg>
