<svg width="199" height="64" viewBox="0 0 199 64" fill="none" xmlns="http://www.w3.org/2000/svg">
<path d="M12.8235 1.53652V62.5521L8.63917 64C4.8939 63.562 1.79974 60.9913 0.603027 57.5341V6.85948C1.79974 3.1923 4.89284 0.465389 8.63917 0L12.8235 1.53652Z" fill="url(#paint0_linear_171_5582)"/>
<path d="M43.2639 11.9839V21.2284L43.2596 21.2305L15.502 30.838L21.5531 19.4955L43.2639 11.9839Z" fill="url(#paint1_linear_171_5582)"/>
<path d="M43.2636 11.984V21.2285L43.2594 21.2296L29.9014 16.6063L24.1563 14.617L18.9579 12.8177L12.8244 10.6945L0.604004 6.46585C1.80072 3.00972 4.89382 0.439007 8.64015 0L12.8244 1.44788L16.6362 2.76701L28.3216 6.81199L43.2594 11.983L43.2636 11.984Z" fill="url(#paint2_linear_171_5582)"/>
<path d="M43.2639 52.0162V42.7717L43.2596 42.7696L15.502 33.1621L21.5531 44.5045L43.2639 52.0162Z" fill="url(#paint3_linear_171_5582)"/>
<path d="M43.2637 42.7712V52.0157L43.2595 52.0168L28.3217 57.1878L16.6352 61.2317L12.8235 62.5508L8.63917 63.9987C4.8939 63.5607 1.79974 60.99 0.603027 57.5328L12.8224 53.3032L18.9558 51.1799L24.1543 49.3806L29.8993 47.3913L43.2574 42.7681L43.2637 42.7712Z" fill="url(#paint4_linear_171_5582)"/>
<path d="M65.5411 16.0174C63.7228 16.0174 62.1156 16.4902 60.7194 17.4336L62.8796 9.00488H57.5451L53.441 24.8017C53.0695 26.2085 52.8838 27.4833 52.8838 28.6293C52.8838 30.7695 53.5993 32.4918 55.0313 33.7972C56.4623 35.1026 58.3587 35.7558 60.7194 35.7558C63.994 35.7558 66.7515 34.4852 68.992 31.944C71.111 29.5137 72.1716 26.6506 72.1716 23.3549C72.1716 21.0343 71.569 19.2318 70.3639 17.9454C69.1566 16.6601 67.5494 16.0174 65.5411 16.0174ZM65.2551 28.7349C64.1903 30.4423 62.8343 31.2961 61.1869 31.2961C60.2625 31.2961 59.5322 31.0228 58.994 30.4751C58.4568 29.9274 58.1878 29.1918 58.1878 28.2674C58.1878 26.3889 58.6595 24.6814 59.604 23.1449C60.7194 21.3773 62.1504 20.4929 63.898 20.4929C65.7764 20.4929 66.7157 21.563 66.7157 23.7021C66.7167 25.5299 66.2292 27.2078 65.2551 28.7349Z" fill="#00507E"/>
<path d="M89.9958 17.3135C88.7801 16.4503 87.309 16.0176 85.5814 16.0176C82.0863 16.0176 79.1525 17.2934 76.7823 19.8452C74.5218 22.3061 73.3916 25.2441 73.3916 28.6601C73.3916 31.0715 74.1746 32.8845 75.7428 34.0992C77.159 35.2041 79.1124 35.757 81.604 35.757C83.703 35.757 85.8326 35.4109 87.9928 34.7176L89.123 30.4837C86.9227 31.2066 84.7731 31.5685 82.6741 31.5685C80.0221 31.5685 78.6956 30.5998 78.6956 28.6601C82.8746 28.6601 85.9434 28.218 87.902 27.3347C89.218 26.7416 90.2448 25.9206 90.9835 24.8716C91.7222 23.8216 92.0905 22.6692 92.0905 21.4134C92.0905 19.6637 91.3919 18.2981 89.9958 17.3135ZM80.4273 24.9075C80.1561 24.9075 79.754 24.8821 79.2222 24.8325C79.6738 23.5873 80.4379 22.5077 81.5122 21.5928C82.6772 20.6082 83.9278 20.1164 85.2638 20.1164C86.6293 20.1164 87.3132 20.6736 87.3132 21.789C87.3142 23.868 85.0179 24.9075 80.4273 24.9075Z" fill="#00507E"/>
<path d="M95.8875 17.9013C94.5008 19.0463 93.8085 20.4836 93.8085 22.2112C93.8085 24.0696 94.6422 25.5206 96.3096 26.5653C97.3849 27.1183 98.1775 27.5098 98.6903 27.741C100.127 28.4248 100.845 29.0917 100.845 29.745C100.845 30.9406 99.7857 31.5379 97.6656 31.5379C95.6964 31.5379 93.8581 31.2161 92.1506 30.5734L91.0352 34.687C93.1943 35.4004 95.4252 35.757 97.7247 35.757C99.9947 35.757 101.953 35.2347 103.602 34.1899C105.47 32.9943 106.405 31.3775 106.405 29.3376C106.405 27.3885 105.314 25.7971 103.135 24.5613C102.151 24.0495 101.443 23.6875 101.011 23.4765C99.9155 22.9446 99.3689 22.3716 99.3689 21.7584C99.3689 20.6641 100.293 20.1164 102.141 20.1164C103.688 20.1164 105.22 20.3422 106.737 20.7949L107.791 16.9072C105.842 16.3141 103.909 16.0176 101.99 16.0176C99.4185 16.0176 97.3839 16.6455 95.8875 17.9013Z" fill="#00507E"/>
<path d="M117.554 13.4258H112.221L109.222 24.5909C108.669 26.6699 108.394 28.2022 108.394 29.1868C108.394 31.1454 109.002 32.7305 110.218 33.9409C111.433 35.1513 113.055 35.756 115.085 35.756C116.26 35.756 117.506 35.5956 118.822 35.2738L119.967 31.0694C118.771 31.3807 117.742 31.5369 116.878 31.5369C114.859 31.5369 113.849 30.5375 113.849 28.5388C113.849 27.7357 114.13 26.2741 114.693 24.154L115.612 20.643H120.675L121.85 16.3184H116.787L117.554 13.4258Z" fill="#00507E"/>
<path d="M144.71 17.9614C143.243 16.6655 141.34 16.0176 139 16.0176C133.445 16.0176 129.873 18.9555 128.286 24.8325L123.253 43.1252H128.588L131.165 34.039C132.39 35.184 134.148 35.7571 136.438 35.7571C139.422 35.7571 141.963 34.4717 144.063 31.8999C146.052 29.459 147.046 26.6867 147.046 23.582C147.045 21.2107 146.266 19.3376 144.71 17.9614ZM140.294 28.6591C139.28 30.4172 137.994 31.2963 136.437 31.2963C135.423 31.2963 134.61 30.9976 133.996 30.3993C133.383 29.802 133.077 29.0158 133.077 28.0407C133.077 26.2931 133.539 24.65 134.464 23.1134C135.529 21.3659 136.854 20.4921 138.441 20.4921C139.426 20.4921 140.196 20.7907 140.755 21.3891C141.312 21.9864 141.59 22.7673 141.59 23.7319C141.59 25.5006 141.159 27.1426 140.294 28.6591Z" fill="#007DC2"/>
<path d="M165.834 17.9013C164.418 16.6455 162.505 16.0176 160.093 16.0176C156.577 16.0176 153.67 17.4043 151.369 20.1765C149.29 22.6681 148.25 25.4256 148.25 28.4491C148.25 30.7496 148.97 32.5426 150.412 33.8279C151.853 35.1133 153.774 35.757 156.175 35.757C159.701 35.757 162.624 34.3704 164.944 31.5981C167.003 29.1065 168.033 26.349 168.033 23.3256C168.034 21.025 167.301 19.2173 165.834 17.9013ZM160.968 28.7351C159.853 30.4425 158.462 31.2963 156.794 31.2963C155.83 31.2963 155.092 31.0029 154.579 30.4151C154.067 29.8273 153.811 29.0516 153.811 28.0871C153.811 26.2688 154.313 24.5919 155.318 23.0543C156.433 21.3469 157.819 20.4931 159.477 20.4931C160.451 20.4931 161.195 20.7844 161.707 21.3669C162.219 21.9494 162.475 22.7283 162.475 23.7023C162.475 25.51 161.972 27.188 160.968 28.7351Z" fill="#007DC2"/>
<path d="M172.434 17.9013C171.047 19.0463 170.355 20.4836 170.355 22.2112C170.355 24.0696 171.189 25.5206 172.856 26.5653C173.93 27.1183 174.724 27.5098 175.237 27.741C176.673 28.4248 177.392 29.0917 177.392 29.745C177.392 30.9406 176.332 31.5379 174.212 31.5379C172.243 31.5379 170.404 31.2161 168.697 30.5734L167.582 34.687C169.741 35.4004 171.972 35.757 174.271 35.757C176.541 35.757 178.5 35.2347 180.147 34.1899C182.015 32.9943 182.95 31.3775 182.95 29.3376C182.95 27.3885 181.86 25.7971 179.681 24.5613C178.696 24.0495 177.988 23.6875 177.556 23.4765C176.461 22.9446 175.914 22.3716 175.914 21.7584C175.914 20.6641 176.839 20.1164 178.687 20.1164C180.234 20.1164 181.765 20.3422 183.282 20.7949L184.337 16.9072C182.387 16.3141 180.454 16.0176 178.536 16.0176C175.965 16.0176 173.931 16.6455 172.434 17.9013Z" fill="#007DC2"/>
<path d="M192.158 20.643H197.221L198.396 16.3184H193.334L194.102 13.4258H188.769L185.771 24.5909C185.218 26.6699 184.942 28.2022 184.942 29.1868C184.942 31.1454 185.55 32.7305 186.766 33.9409C187.982 35.1513 189.604 35.756 191.633 35.756C192.809 35.756 194.054 35.5956 195.37 35.2738L196.515 31.0694C195.319 31.3807 194.29 31.5369 193.426 31.5369C191.407 31.5369 190.397 30.5375 190.397 28.5388C190.397 27.7357 190.678 26.2741 191.241 24.154L192.158 20.643Z" fill="#007DC2"/>
<path d="M55.2402 45.3139C56.0138 45.1883 57.0037 45.0796 58.1202 45.0796C59.7401 45.0796 60.9093 45.4753 61.6301 46.1592C62.2422 46.7354 62.602 47.5268 62.602 48.5167C62.602 49.5784 62.2781 50.4068 61.666 51.0188C60.8376 51.8831 59.452 52.3327 57.85 52.3327C57.22 52.3327 56.6259 52.3148 56.1225 52.1533V57.319H55.2402V45.3139ZM56.1214 51.3798C56.6259 51.5412 57.2738 51.5961 57.9576 51.5961C60.369 51.5961 61.7188 50.4986 61.7188 48.6265C61.7188 46.5391 60.063 45.8194 58.1012 45.8194C57.1831 45.8194 56.4813 45.9091 56.1214 45.9808V51.3798Z" fill="white"/>
<path d="M72.9663 52.8909C72.9663 56.1307 70.4462 57.5343 68.323 57.5343C65.7491 57.5343 63.877 55.6442 63.877 53.0883C63.877 50.2084 66.0361 48.4629 68.4485 48.4629C71.2208 48.4639 72.9663 50.4258 72.9663 52.8909ZM64.7592 53.0355C64.7592 55.4479 66.5047 56.8156 68.3768 56.8156C70.2848 56.8156 72.0841 55.43 72.0841 52.9458C72.0841 51.308 70.9855 49.1847 68.4485 49.1847C66.0013 49.1837 64.7592 51.0199 64.7592 53.0355Z" fill="white"/>
<path d="M74.9268 48.6793L76.5098 53.7194C76.8338 54.7631 77.086 55.5915 77.3023 56.383H77.3382C77.5725 55.6274 77.8964 54.7631 78.2922 53.7194L80.2181 48.6793H81.1004L82.9355 53.7004C83.3313 54.78 83.6194 55.6443 83.8536 56.3819H83.8895C84.0869 55.6263 84.375 54.7621 84.7348 53.7184L86.4624 48.6782H87.3636L84.2314 57.3169H83.44L81.6765 52.547C81.2629 51.4494 80.902 50.4416 80.6508 49.4697H80.6149C80.3268 50.4775 79.949 51.5033 79.5353 52.566L77.6453 57.3169H76.8528L74.0098 48.6782H74.9268V48.6793Z" fill="white"/>
<path d="M89.0532 52.9996C89.0532 55.5196 90.6551 56.7797 92.7066 56.7797C94.201 56.7797 94.9207 56.4916 95.4779 56.2393L95.7121 56.9411C95.4061 57.0857 94.4342 57.5353 92.6169 57.5353C89.9354 57.5353 88.1899 55.717 88.1899 53.2159C88.1899 50.2822 90.0621 48.4639 92.5093 48.4639C95.7132 48.4639 96.2704 51.3079 96.2704 52.4592C96.2704 52.7294 96.2704 52.855 96.2345 52.9996H89.0532ZM95.3533 52.2967C95.3713 51.3966 94.9935 49.1836 92.4017 49.1836C90.2056 49.1836 89.2885 50.9829 89.1081 52.2967H95.3533Z" fill="white"/>
<path d="M98.6631 51.4693C98.6631 50.5332 98.6451 49.6151 98.5913 48.6801H99.4007L99.4366 50.5522H99.4904C99.922 49.346 100.858 48.4648 102.136 48.4648C102.28 48.4648 102.424 48.4828 102.55 48.5187V49.3281C102.388 49.2922 102.244 49.2922 102.046 49.2922C100.84 49.2922 99.922 50.3 99.634 51.7943C99.5801 52.0465 99.5443 52.3526 99.5443 52.6407V57.3199H98.662V51.4693H98.6631Z" fill="white"/>
<path d="M116.804 57.3187C116.353 56.9051 115.957 56.4734 115.345 55.9331C113.942 57.1752 112.699 57.5351 111.314 57.5351C109.316 57.5351 107.696 56.1315 107.696 54.1328C107.696 52.2965 108.92 51.2349 110.288 50.5511V50.4973C109.533 49.5433 109.172 48.661 109.172 47.8875C109.172 46.4122 110.234 44.9717 112.105 44.9717C113.545 44.9717 114.59 45.9974 114.59 47.401C114.59 48.7148 113.797 49.7047 111.511 50.7305V50.7843C113.023 52.4759 114.553 54.06 115.345 54.8704C115.939 54.1148 116.371 53.106 116.732 50.9647H117.56C117.163 53.125 116.642 54.4926 115.85 55.3379C116.642 56.1115 117.29 56.7415 117.938 57.3177H116.804V57.3187ZM114.842 55.4287C114.337 54.9432 112.52 53.0891 110.702 51.0734C109.91 51.4692 108.56 52.3514 108.56 54.0072C108.56 55.7168 109.891 56.8333 111.529 56.8333C112.934 56.8322 114.067 56.2212 114.842 55.4287ZM109.999 47.7978C109.999 48.8594 110.575 49.6161 111.062 50.2461C112.645 49.4905 113.761 48.7708 113.761 47.4928C113.761 46.6285 113.239 45.6566 111.979 45.6566C110.684 45.6555 109.999 46.6813 109.999 47.7978Z" fill="white"/>
<path d="M132.981 56.8322C132.297 57.1742 130.93 57.534 129.183 57.534C125.908 57.534 122.775 55.5363 122.775 51.3067C122.775 48.1386 125.115 44.9717 129.669 44.9717C131.505 44.9717 132.531 45.3854 132.944 45.5837L132.656 46.3214C131.935 45.9615 130.856 45.7093 129.722 45.7093C125.781 45.7093 123.694 48.1028 123.694 51.3784C123.694 54.366 125.691 56.7784 129.507 56.7784C130.694 56.7784 131.883 56.5441 132.711 56.1305L132.981 56.8322Z" fill="white"/>
<path d="M135.175 51.4693C135.175 50.5332 135.157 49.6151 135.104 48.6801H135.913L135.949 50.5522H136.003C136.434 49.346 137.37 48.4648 138.648 48.4648C138.792 48.4648 138.936 48.4828 139.062 48.5187V49.3281C138.899 49.2922 138.756 49.2922 138.558 49.2922C137.351 49.2922 136.433 50.3 136.145 51.7943C136.091 52.0465 136.055 52.3526 136.055 52.6407V57.3199H135.173V51.4693H135.175Z" fill="white"/>
<path d="M140.862 52.9996C140.862 55.5196 142.464 56.7797 144.516 56.7797C146.01 56.7797 146.73 56.4916 147.287 56.2393L147.521 56.9411C147.215 57.0857 146.243 57.5353 144.426 57.5353C141.744 57.5353 139.999 55.717 139.999 53.2159C139.999 50.2822 141.871 48.4639 144.318 48.4639C147.522 48.4639 148.079 51.3079 148.079 52.4592C148.079 52.7294 148.079 52.855 148.044 52.9996H140.862ZM147.161 52.2967C147.179 51.3966 146.802 49.1836 144.21 49.1836C142.014 49.1836 141.097 50.9829 140.916 52.2967H147.161Z" fill="white"/>
<path d="M155.708 57.319L155.565 55.9872H155.529C155.079 56.6531 153.981 57.5353 152.397 57.5353C150.435 57.5353 149.644 56.2035 149.644 55.1599C149.644 53.198 151.462 51.9201 155.493 51.9739V51.7755C155.493 51.1275 155.349 49.1837 153.045 49.2016C152.182 49.2016 151.281 49.4179 150.562 49.9213L150.274 49.2913C151.228 48.6613 152.289 48.4629 153.118 48.4629C156.051 48.4629 156.375 50.7307 156.375 52.0984V55.2306C156.375 55.9323 156.411 56.6162 156.519 57.318H155.708V57.319ZM155.493 52.7115C153.207 52.6398 150.58 52.9997 150.58 54.9973C150.58 56.2215 151.462 56.8156 152.47 56.8156C154.143 56.8156 155.044 55.8257 155.385 55.0522C155.457 54.8728 155.493 54.6924 155.493 54.5478V52.7115Z" fill="white"/>
<path d="M160.495 46.106V48.6798H163.23V49.3816H160.495V54.9072C160.495 55.9688 160.819 56.7793 161.881 56.7793C162.402 56.7793 162.763 56.7075 163.014 56.6178L163.122 57.3017C162.816 57.4273 162.366 57.536 161.79 57.536C161.106 57.536 160.548 57.3196 160.188 56.888C159.756 56.4026 159.612 55.61 159.612 54.8006V49.3837H158.029V48.6819H159.612V46.3782L160.495 46.106Z" fill="white"/>
<path d="M166.523 46.1241C166.523 46.5199 166.235 46.8977 165.768 46.8977C165.354 46.8977 165.066 46.5199 165.066 46.1241C165.066 45.7284 165.39 45.3506 165.804 45.3506C166.217 45.3495 166.523 45.7094 166.523 46.1241ZM165.353 57.3188V48.6801H166.235V57.3188H165.353Z" fill="white"/>
<path d="M169.024 48.6792L171.274 54.0064C171.688 54.9783 171.994 55.698 172.264 56.4547H172.3C172.588 55.6991 172.948 54.9245 173.344 54.0064L175.647 48.6792H176.583L172.642 57.3179H171.85L168.07 48.6792H169.024Z" fill="white"/>
<path d="M179.498 46.1241C179.498 46.5199 179.21 46.8977 178.743 46.8977C178.329 46.8977 178.041 46.5199 178.041 46.1241C178.041 45.7284 178.365 45.3506 178.779 45.3506C179.192 45.3506 179.498 45.7094 179.498 46.1241ZM178.328 57.3188V48.6801H179.21V57.3188H178.328Z" fill="white"/>
<path d="M183.618 46.106V48.6798H186.353V49.3816H183.618V54.9072C183.618 55.9688 183.942 56.7793 185.004 56.7793C185.525 56.7793 185.886 56.7075 186.137 56.6178L186.245 57.3017C185.939 57.4273 185.489 57.536 184.913 57.536C184.229 57.536 183.671 57.3196 183.311 56.888C182.879 56.4026 182.735 55.61 182.735 54.8006V49.3837H181.152V48.6819H182.735V46.3782L183.618 46.106Z" fill="white"/>
<path d="M188.099 48.6793L190.673 54.4571C190.925 55.0153 191.213 55.735 191.375 56.2743H191.411C191.609 55.734 191.842 55.086 192.13 54.3842L194.543 48.6793H195.497L192.437 55.6622C191.249 58.3976 190.476 59.7484 189.324 60.5757C188.587 61.116 187.921 61.3134 187.74 61.3493L187.506 60.6116C187.938 60.486 188.55 60.2338 189.089 59.7652C189.54 59.3874 190.205 58.6677 190.745 57.4436C190.817 57.2821 190.852 57.1734 190.852 57.1017C190.852 57.0299 190.816 56.9033 190.726 56.7059L187.144 48.6782H188.099V48.6793Z" fill="white"/>
<defs>
<linearGradient id="paint0_linear_171_5582" x1="14.9928" y1="1.58845" x2="-0.0852481" y2="61.901" gradientUnits="userSpaceOnUse">
<stop stop-color="#004E7C"/>
<stop offset="1" stop-color="#117DC0"/>
</linearGradient>
<linearGradient id="paint1_linear_171_5582" x1="15.8902" y1="31.3509" x2="43.8304" y2="12.764" gradientUnits="userSpaceOnUse">
<stop offset="0.00279321" stop-color="#FDEA14"/>
<stop offset="0.2849" stop-color="#FDCB4D"/>
<stop offset="0.5368" stop-color="#F7AC05"/>
<stop offset="1" stop-color="#149BD7"/>
</linearGradient>
<linearGradient id="paint2_linear_171_5582" x1="3.69261" y1="0.104422" x2="43.7995" y2="20.1579" gradientUnits="userSpaceOnUse">
<stop stop-color="#004E7C"/>
<stop offset="1" stop-color="#117DC0"/>
</linearGradient>
<linearGradient id="paint3_linear_171_5582" x1="16.2271" y1="32.6372" x2="43.5687" y2="51.2247" gradientUnits="userSpaceOnUse">
<stop offset="0.00279321" stop-color="#FDEA14"/>
<stop offset="0.2849" stop-color="#FDCB4D"/>
<stop offset="0.5368" stop-color="#F7AC05"/>
<stop offset="1" stop-color="#149BD7"/>
</linearGradient>
<linearGradient id="paint4_linear_171_5582" x1="1.37627" y1="60.2852" x2="44.7612" y2="48.1018" gradientUnits="userSpaceOnUse">
<stop stop-color="#004E7C"/>
<stop offset="1" stop-color="#117DC0"/>
</linearGradient>
</defs>
</svg>
