<svg width="9" height="9" viewBox="0 0 9 9" fill="none" xmlns="http://www.w3.org/2000/svg">
<path d="M2.37997 0.5C1.06543 0.5 0 1.56543 0 2.87997C0 5.16812 2.65417 7.35447 3.89418 8.32812C3.89536 8.32908 3.89654 8.33002 3.89773 8.33097C3.90622 8.33764 3.91778 8.34714 3.92614 8.35369L3.92685 8.35298C4.05266 8.44804 4.20595 8.49964 4.36364 8.5C4.52156 8.4998 4.67513 8.44819 4.80114 8.35298V8.35369C4.80358 8.35177 4.8072 8.34923 4.80966 8.3473C4.81153 8.34583 4.81418 8.3438 4.81605 8.34233C4.81843 8.34021 4.8208 8.33808 4.82315 8.33594C6.05931 7.36578 8.72727 5.17358 8.72727 2.87997C8.72727 1.56543 7.66185 0.5 6.3473 0.5C5.09094 0.5 4.36364 1.59091 4.36364 1.59091C4.36364 1.59091 3.63634 0.5 2.37997 0.5Z" fill="white"/>
</svg>
