<svg width="49" height="48" viewBox="0 0 49 48" fill="none" xmlns="http://www.w3.org/2000/svg">
<rect x="0.75" width="48" height="48" rx="24" fill="white"/>
<path d="M31.4425 19.3288C33.6032 20.8789 36.2501 21.7909 39.109 21.7909V16.27C38.5679 16.2702 38.0283 16.2135 37.4989 16.101V20.4467C34.6403 20.4467 31.9937 19.5347 29.8325 17.9848V29.2512C29.8325 34.8873 25.2798 39.4559 19.6641 39.4559C17.5688 39.4559 15.6212 38.8201 14.0034 37.7298C15.8499 39.6246 18.4249 40.7999 21.2738 40.7999C26.8898 40.7999 31.4427 36.2313 31.4427 30.5951V19.3288H31.4425ZM33.4286 13.759C32.3244 12.5483 31.5994 10.9837 31.4425 9.25404V8.54395H29.9168C30.3008 10.7424 31.6107 12.6206 33.4286 13.759ZM17.5553 33.4049C16.9384 32.5931 16.605 31.6 16.6065 30.5789C16.6065 28.0012 18.6889 25.9112 21.2579 25.9112C21.7367 25.911 22.2126 25.9846 22.6689 26.1299V20.4857C22.1357 20.4123 21.5975 20.3812 21.0596 20.3926V24.7858C20.603 24.6405 20.1268 24.5667 19.6479 24.5672C17.0788 24.5672 14.9966 26.657 14.9966 29.2351C14.9966 31.0579 16.0374 32.6361 17.5553 33.4049Z" fill="white"/>
<path d="M29.8326 17.9846C31.9939 19.5346 34.6405 20.4466 37.4991 20.4466V16.1009C35.9035 15.7598 34.4909 14.923 33.4288 13.759C31.6108 12.6205 30.301 10.7423 29.9169 8.54395H25.9093V30.5948C25.9002 33.1655 23.8214 35.247 21.2579 35.247C19.7472 35.247 18.4051 34.5244 17.5552 33.4049C16.0374 32.6361 14.9965 31.0578 14.9965 29.2352C14.9965 26.6574 17.0788 24.5673 19.6479 24.5673C20.1401 24.5673 20.6145 24.6442 21.0595 24.7859V20.3927C15.5425 20.5071 11.1055 25.0311 11.1055 30.595C11.1055 33.3724 12.2104 35.8903 14.0037 37.73C15.6215 38.8201 17.569 39.456 19.6644 39.456C25.2802 39.456 29.8328 34.8871 29.8328 29.2512V17.9846H29.8326Z" fill="#061F37"/>
<path d="M37.4991 16.1011V14.9261C36.0602 14.9283 34.6496 14.5239 33.4288 13.7591C34.5095 14.9465 35.9325 15.7652 37.4991 16.1011ZM29.917 8.54417C29.8803 8.33407 29.8522 8.12259 29.8327 7.91029V7.2002H24.2992V29.2513C24.2904 31.8217 22.2117 33.9032 19.6479 33.9032C18.8952 33.9032 18.1845 33.7239 17.5552 33.4053C18.4052 34.5246 19.7472 35.2471 21.2579 35.2471C23.8212 35.2471 25.9004 33.1659 25.9093 30.5952V8.54417H29.917ZM21.0598 20.393V19.142C20.5974 19.0786 20.1313 19.0468 19.6645 19.047C14.0483 19.0469 9.49561 23.6157 9.49561 29.2513C9.49561 32.7845 11.2849 35.8983 14.0038 37.73C12.2105 35.8904 11.1056 33.3724 11.1056 30.5951C11.1056 25.0313 15.5425 20.5073 21.0598 20.393Z" fill="#061F37"/>
</svg>
