<svg width="13" height="9" viewBox="0 0 13 9" fill="none" xmlns="http://www.w3.org/2000/svg">
<path d="M6.72705 0.5C3.15973 0.5 0.855446 4.18447 0.81377 4.25156C0.757672 4.32222 0.727111 4.40978 0.727051 4.5C0.727122 4.5774 0.749647 4.65312 0.791895 4.71797L0.793457 4.72031C0.800334 4.7345 2.73458 8.5 6.72705 8.5C10.7026 8.5 12.634 4.7715 12.6575 4.72578C12.6591 4.72319 12.6607 4.72059 12.6622 4.71797C12.7045 4.65312 12.727 4.5774 12.7271 4.5C12.727 4.41014 12.6968 4.3229 12.6411 4.25234L12.6403 4.25156C12.5987 4.18447 10.2944 0.5 6.72705 0.5ZM6.72705 1.7C8.27345 1.7 9.52705 2.9536 9.52705 4.5C9.52705 6.0464 8.27345 7.3 6.72705 7.3C5.18065 7.3 3.92705 6.0464 3.92705 4.5C3.92705 2.9536 5.18065 1.7 6.72705 1.7ZM6.72705 3.3C6.40879 3.3 6.10357 3.42643 5.87852 3.65147C5.65348 3.87651 5.52705 4.18174 5.52705 4.5C5.52705 4.81826 5.65348 5.12348 5.87852 5.34853C6.10357 5.57357 6.40879 5.7 6.72705 5.7C7.04531 5.7 7.35054 5.57357 7.57558 5.34853C7.80062 5.12348 7.92705 4.81826 7.92705 4.5C7.92705 4.18174 7.80062 3.87651 7.57558 3.65147C7.35054 3.42643 7.04531 3.3 6.72705 3.3Z" fill="white"/>
</svg>
